<svg width="313" height="24" viewBox="0 0 313 24" fill="none" xmlns="http://www.w3.org/2000/svg">
<path d="M15.3031 20.3334C14.1622 20.3334 13.1685 18.5994 12.6516 16.0375C12.1347 18.5994 11.141 20.3334 10.0001 20.3334C8.85916 20.3334 7.8655 18.5994 7.34858 16.0375C6.83162 18.5994 5.83796 20.3334 4.69704 20.3334C3.02346 20.3334 1.66675 16.6024 1.66675 12C1.66675 7.39764 3.02346 3.66669 4.69704 3.66669C5.83796 3.66669 6.83162 5.40062 7.34858 7.96252C7.8655 5.40062 8.85916 3.66669 10.0001 3.66669C11.141 3.66669 12.1347 5.40062 12.6516 7.96252C13.1685 5.40062 14.1622 3.66669 15.3031 3.66669C16.9767 3.66669 18.3334 7.39764 18.3334 12C18.3334 16.6024 16.9767 20.3334 15.3031 20.3334Z" fill="#6B8E23"/>
<path d="M29.0518 18V6.35938H36.846V8.33849H31.4391V11.1481H36.4336V13.0935H31.4391V16.0209H36.8614V18H29.0518ZM42.1877 18.1706C41.4846 18.1706 40.8621 18.07 40.32 17.8688C39.7779 17.6676 39.3354 17.3762 38.9926 16.9944C38.6497 16.6127 38.4276 16.1522 38.3262 15.6128L40.5102 15.2376C40.6239 15.6437 40.8238 15.9481 41.1096 16.151C41.3955 16.3538 41.7778 16.4553 42.2564 16.4553C42.7027 16.4553 43.0554 16.3701 43.3148 16.1997C43.5741 16.0293 43.7037 15.8136 43.7037 15.5527C43.7037 15.3237 43.6116 15.1364 43.4274 14.9907C43.2432 14.845 42.9588 14.7326 42.5744 14.6533L41.0706 14.3433C40.2283 14.1699 39.599 13.8767 39.1826 13.4638C38.7663 13.0508 38.5581 12.5174 38.5581 11.8634C38.5581 11.3044 38.7107 10.8229 39.0158 10.419C39.321 10.0151 39.748 9.70365 40.2969 9.48469C40.8457 9.26573 41.4877 9.15625 42.2228 9.15625C42.9146 9.15625 43.513 9.25172 44.0181 9.44266C44.5231 9.6336 44.9311 9.90279 45.2419 10.2502C45.5528 10.5977 45.762 11.0095 45.8697 11.4856L43.7905 11.8517C43.6988 11.5533 43.527 11.3095 43.2751 11.1204C43.0231 10.9313 42.6848 10.8368 42.2602 10.8368C41.8743 10.8368 41.5512 10.9179 41.2906 11.0801C41.03 11.2423 40.8997 11.4565 40.8997 11.7227C40.8997 11.9415 40.9839 12.1268 41.1521 12.2785C41.3204 12.4302 41.6105 12.5491 42.0225 12.6351L43.5918 12.9476C44.4369 13.1183 45.0657 13.3981 45.4783 13.7871C45.8908 14.1761 46.0971 14.6827 46.0971 15.307C46.0971 15.8793 45.9301 16.3801 45.596 16.8095C45.2619 17.2389 44.8013 17.5731 44.2142 17.8121C43.627 18.0511 42.9515 18.1706 42.1877 18.1706ZM52.0182 9.26562V11.051H46.8359V9.26562H52.0182ZM48.0387 7.1875H50.3816V15.4433C50.3816 15.7214 50.4435 15.9264 50.5672 16.0582C50.6909 16.1901 50.894 16.2561 51.1766 16.2561C51.268 16.2561 51.3939 16.2449 51.5544 16.2227C51.7149 16.2005 51.837 16.1789 51.9207 16.1581L52.2561 17.9152C51.995 17.9926 51.7361 18.0464 51.4795 18.0766C51.2229 18.1069 50.9767 18.122 50.741 18.122C49.8648 18.122 49.1954 17.9095 48.7327 17.4843C48.2701 17.0591 48.0387 16.4476 48.0387 15.6497V7.1875ZM56.0564 18.1694C55.5015 18.1694 55.0044 18.0715 54.5651 17.8759C54.1259 17.6802 53.7805 17.3889 53.5289 17.0019C53.2773 16.6149 53.1516 16.1335 53.1516 15.5578C53.1516 15.0691 53.2407 14.6614 53.4189 14.3348C53.5971 14.0083 53.8411 13.7453 54.1507 13.5459C54.4603 13.3466 54.8121 13.1949 55.2062 13.0909C55.6002 12.9868 56.0129 12.9144 56.4445 12.8736C56.9485 12.8228 57.3554 12.7749 57.6652 12.73C57.9751 12.6851 58.2024 12.6149 58.3472 12.5193C58.492 12.4237 58.5643 12.2818 58.5643 12.0936V12.0552C58.5643 11.8059 58.5114 11.595 58.4055 11.4226C58.2996 11.2502 58.145 11.118 57.9417 11.0262C57.7384 10.9344 57.4884 10.8885 57.1919 10.8885C56.8933 10.8885 56.6322 10.9339 56.4085 11.0247C56.1847 11.1155 56.0015 11.2368 55.8588 11.3885C55.7161 11.5403 55.6133 11.7106 55.5505 11.8997L53.4016 11.543C53.5496 11.0342 53.7982 10.6027 54.1475 10.2484C54.4967 9.89405 54.9308 9.62345 55.4496 9.43657C55.9684 9.24969 56.5516 9.15625 57.1992 9.15625C57.6681 9.15625 58.1239 9.2118 58.5666 9.3229C59.0093 9.43399 59.4067 9.60777 59.7586 9.84423C60.1106 10.0807 60.39 10.3865 60.5969 10.7616C60.8038 11.1367 60.9072 11.5894 60.9072 12.1198V18H58.6848V16.7872H58.6079C58.4668 17.0578 58.2791 17.297 58.0449 17.5047C57.8107 17.7124 57.5289 17.8751 57.1997 17.9928C56.8704 18.1105 56.4893 18.1694 56.0564 18.1694ZM56.7163 16.5264C57.0852 16.5264 57.4093 16.4529 57.6885 16.3061C57.9677 16.1592 58.1863 15.961 58.3443 15.7114C58.5022 15.4618 58.5812 15.1839 58.5812 14.8775V13.9324C58.5099 13.9804 58.4046 14.0254 58.2653 14.0674C58.126 14.1095 57.9707 14.1471 57.7992 14.1803C57.6278 14.2136 57.4585 14.2424 57.2914 14.2668C57.1243 14.2912 56.9759 14.3127 56.8461 14.3311C56.5582 14.37 56.3051 14.436 56.0867 14.5291C55.8684 14.6222 55.6988 14.7467 55.578 14.9027C55.4572 15.0586 55.3968 15.254 55.3968 15.4889C55.3968 15.715 55.4538 15.9051 55.5679 16.059C55.6819 16.2129 55.8378 16.3292 56.0355 16.4081C56.2332 16.4869 56.4601 16.5264 56.7163 16.5264ZM67.2447 9.26562V11.051H62.0625V9.26562H67.2447ZM63.2653 7.1875H65.6082V15.4433C65.6082 15.7214 65.67 15.9264 65.7937 16.0582C65.9174 16.1901 66.1206 16.2561 66.4032 16.2561C66.4945 16.2561 66.6205 16.2449 66.781 16.2227C66.9415 16.2005 67.0636 16.1789 67.1472 16.1581L67.4827 17.9152C67.2215 17.9926 66.9627 18.0464 66.706 18.0766C66.4494 18.1069 66.2032 18.122 65.9675 18.122C65.0914 18.122 64.422 17.9095 63.9593 17.4843C63.4966 17.0591 63.2653 16.4476 63.2653 15.6497V7.1875ZM72.5578 18.1706C71.6662 18.1706 70.8976 17.988 70.2519 17.6229C69.6061 17.2577 69.1102 16.7392 68.764 16.0673C68.4178 15.3955 68.2447 14.599 68.2447 13.6778C68.2447 12.7792 68.4167 11.9908 68.7607 11.3127C69.1047 10.6347 69.5913 10.1057 70.2204 9.72594C70.8495 9.34615 71.5894 9.15625 72.4402 9.15625C73.0106 9.15625 73.5436 9.24714 74.0391 9.42891C74.5346 9.61068 74.9695 9.8848 75.3437 10.2513C75.7179 10.6177 76.0102 11.0782 76.2205 11.6327C76.4308 12.1871 76.536 12.8385 76.536 13.5867V14.2444H69.2062V12.77H75.3942L74.2992 13.1653C74.2992 12.7105 74.2297 12.3153 74.0908 11.9797C73.9519 11.6441 73.7462 11.3837 73.4736 11.1986C73.201 11.0135 72.8621 10.921 72.457 10.921C72.0519 10.921 71.7083 11.0147 71.4261 11.2022C71.1439 11.3897 70.9292 11.6441 70.7819 11.9653C70.6346 12.2866 70.561 12.6518 70.561 13.0611V14.0991C70.561 14.6043 70.6455 15.0287 70.8147 15.3723C70.9838 15.716 71.2216 15.9741 71.5282 16.1468C71.8348 16.3195 72.1905 16.4059 72.5952 16.4059C72.8686 16.4059 73.1171 16.367 73.3407 16.2891C73.5643 16.2112 73.7565 16.096 73.9175 15.9433C74.0784 15.7905 74.2009 15.6023 74.285 15.3786L76.4038 15.7705C76.2627 16.253 76.0181 16.6742 75.6699 17.0343C75.3216 17.3943 74.8853 17.6737 74.361 17.8725C73.8366 18.0712 73.2355 18.1706 72.5578 18.1706ZM78.1925 18V6.35938H85.8517V8.33849H80.5797V11.5887H85.3374V13.5341H80.5797V18H78.1925ZM89.8722 6.35938V18H87.5294V6.35938H89.8722ZM95.7744 18.1706C94.8983 18.1706 94.1403 17.9824 93.5004 17.606C92.8604 17.2296 92.3675 16.7036 92.0215 16.0279C91.6755 15.3522 91.5025 14.5665 91.5025 13.6706C91.5025 12.7676 91.6755 11.9777 92.0215 11.3008C92.3675 10.6239 92.8604 10.0973 93.5004 9.72086C94.1403 9.34445 94.8983 9.15625 95.7744 9.15625C96.6528 9.15625 97.4112 9.34445 98.0496 9.72086C98.6879 10.0973 99.1801 10.6239 99.526 11.3008C99.872 11.9777 100.045 12.7676 100.045 13.6706C100.045 14.5665 99.872 15.3522 99.526 16.0279C99.1801 16.7036 98.6879 17.2296 98.0496 17.606C97.4112 17.9824 96.6528 18.1706 95.7744 18.1706ZM95.7744 16.3264C96.1914 16.3264 96.54 16.2105 96.8204 15.9787C97.1007 15.7469 97.311 15.43 97.4511 15.0278C97.5912 14.6256 97.6612 14.1704 97.6612 13.6622C97.6612 13.1488 97.5912 12.6919 97.4511 12.2915C97.311 11.8911 97.1007 11.5759 96.8204 11.3457C96.54 11.1156 96.1914 11.0005 95.7744 11.0005C95.357 11.0005 95.0086 11.1156 94.7293 11.3457C94.4499 11.5759 94.2402 11.8905 94.1001 12.2897C93.96 12.6889 93.8899 13.1464 93.8899 13.6622C93.8899 14.1704 93.96 14.6256 94.1001 15.0278C94.2402 15.43 94.4499 15.7469 94.7293 15.9787C95.0086 16.2105 95.357 16.3264 95.7744 16.3264ZM103.281 18L100.704 9.26562H103.162L103.921 12.4959C104.05 13.073 104.19 13.7015 104.341 14.3815C104.493 15.0614 104.632 15.8124 104.76 16.6345H104.492C104.629 15.8292 104.778 15.0853 104.939 14.4027C105.101 13.7201 105.251 13.0845 105.391 12.4959L106.189 9.26562H108.347L109.121 12.4959C109.256 13.0802 109.404 13.7123 109.565 14.3922C109.727 15.0722 109.876 15.8196 110.013 16.6345H109.75C109.877 15.8244 110.013 15.0794 110.156 14.3994C110.299 13.7195 110.436 13.085 110.567 12.4959L111.326 9.26562H113.818L111.224 18H108.843L107.875 14.6291C107.78 14.2956 107.685 13.924 107.591 13.5143C107.497 13.1047 107.406 12.6875 107.317 12.2626C107.229 11.8378 107.138 11.441 107.046 11.0723H107.459C107.372 11.4386 107.283 11.8348 107.192 12.2608C107.1 12.6869 107.008 13.1059 106.916 13.5179C106.823 13.93 106.728 14.3004 106.631 14.6291L105.662 18H103.281Z" fill="#0D1B11"/>
</svg>
